<svg width="150" height="150" viewBox="0 0 150 150" fill="none" xmlns="http://www.w3.org/2000/svg">
<circle cx="50.5" cy="50.5" r="50.5" transform="matrix(-1 0 0 1 125 25)" fill="#ED4250"/>
<circle opacity="0.5" cx="55.5" cy="55.5" r="54" transform="matrix(-1 0 0 1 130 20)" stroke="#ED4250" stroke-width="3"/>
<path d="M68.9211 100C67.4681 100.003 66.0536 99.5244 64.891 98.6372L64.8189 98.5821L49.6418 86.753C48.939 86.2048 48.349 85.521 47.9057 84.7406C47.4625 83.9603 47.1745 83.0987 47.0583 82.2051C46.9421 81.3115 47 80.4034 47.2285 79.5325C47.4571 78.6616 47.8519 77.8451 48.3905 77.1296C48.929 76.4141 49.6008 75.8136 50.3673 75.3623C51.1338 74.911 51.9802 74.6179 52.858 74.4996C53.7358 74.3813 54.6279 74.4402 55.4834 74.6729C56.3389 74.9056 57.141 75.3075 57.8438 75.8557L67.6744 83.5293L90.9056 52.6875C91.4444 51.9721 92.1163 51.3718 92.883 50.9208C93.6497 50.4698 94.4962 50.177 95.374 50.059C96.2519 49.9411 97.144 50.0003 97.9994 50.2333C98.8548 50.4663 99.6567 50.8686 100.359 51.4171L100.215 51.6167L100.363 51.42C101.781 52.529 102.708 54.165 102.942 55.9692C103.176 57.7734 102.697 59.5984 101.611 61.0438L74.2856 97.3212C73.6536 98.1571 72.8409 98.8337 71.9106 99.2982C70.9803 99.7628 69.9573 100.003 68.9211 100V100Z" fill="#F2F2F2"/>
<circle cx="51.1194" cy="19.1004" r="5.9129" fill="#ED4250"/>
<circle cx="30.1966" cy="16.3714" r="3.18387" fill="#ED4250"/>
<circle cx="23.8289" cy="40.9319" r="3.18387" fill="#ED4250"/>
<circle cx="11.5484" cy="73.2261" r="4.54839" fill="#ED4250"/>
<circle cx="13.8225" cy="113.707" r="3.18387" fill="#ED4250"/>
<circle cx="27.9224" cy="134.173" r="4.54839" fill="#ED4250"/>
<circle cx="57.0322" cy="136.903" r="1.81935" fill="#ED4250"/>
<circle cx="81.1385" cy="141.906" r="4.09355" fill="#ED4250"/>
<circle cx="101.606" cy="135.993" r="2.72903" fill="#ED4250"/>
<circle cx="126.622" cy="125.533" r="4.09355" fill="#ED4250"/>
<circle cx="132.991" cy="106.428" r="2.27419" fill="#ED4250"/>
<circle cx="141.178" cy="89.1453" r="2.27419" fill="#ED4250"/>
<circle cx="138.903" cy="55.0328" r="4.54839" fill="#ED4250"/>
<circle cx="126.168" cy="49.5747" r="2.72903" fill="#ED4250"/>
<circle cx="105.245" cy="25.0122" r="2.72903" fill="#ED4250"/>
<circle cx="79.774" cy="7.72903" r="2.72903" fill="#ED4250"/>
<circle cx="122.529" cy="18.646" r="4.54839" fill="#ED4250"/>
</svg>
